<?xml version="1.0" encoding="UTF-8" standalone="no"?>
<svg
   width="48"
   height="48"
   version="1.1"
   id="svg10"
   sodipodi:docname="xapp-corner-bar.svg"
   inkscape:version="1.1.2 (0a00cf5339, 2022-02-04)"
   xmlns:inkscape="http://www.inkscape.org/namespaces/inkscape"
   xmlns:sodipodi="http://sodipodi.sourceforge.net/DTD/sodipodi-0.dtd"
   xmlns="http://www.w3.org/2000/svg"
   xmlns:svg="http://www.w3.org/2000/svg">
  <defs
     id="defs14" />
  <sodipodi:namedview
     id="namedview12"
     pagecolor="#ffffff"
     bordercolor="#666666"
     borderopacity="1.0"
     inkscape:pageshadow="2"
     inkscape:pageopacity="0.0"
     inkscape:pagecheckerboard="0"
     showgrid="false"
     inkscape:zoom="11.829307"
     inkscape:cx="29.249389"
     inkscape:cy="23.627758"
     inkscape:window-width="1920"
     inkscape:window-height="985"
     inkscape:window-x="1920"
     inkscape:window-y="27"
     inkscape:window-maximized="1"
     inkscape:current-layer="svg10" />
  <path
     fill="#fff"
     opacity=".1"
     d="m6 6c-1.108 0-2 0.892-2 2v1c0-1.108 0.892-2 2-2h36c1.108 0 2 0.892 2 2v-1c0-1.108-0.892-2-2-2z"
     id="path6" />
  <path
     opacity=".2"
     d="m4 40v1c0 1.108 0.892 2 2 2h36c1.108 0 2-0.892 2-2v-1c0 1.108-0.892 2-2 2h-36c-1.108 0-2-0.892-2-2z"
     id="path8" />
  <rect
     style="fill:#1e88e5;fill-opacity:1;stroke:none;stroke-width:0.729904"
     id="rect853"
     width="4"
     height="4"
     x="34"
     y="38" />
  <g
     id="g1020" />
  <path
     id="rect1473"
     style="fill:#1e88e5;stroke-width:0.961489"
     d="M 6 6 C 4.892 6 4 6.892 4 8 L 4 38 L 4 40 C 4 41.108 4.892 42 6 42 L 42 42 C 43.108 42 44 41.108 44 40 L 44 38 L 44 8 C 44 6.892 43.108 6 42 6 L 6 6 z " />
  <rect
     style="fill:#253951;fill-opacity:1;stroke:none;stroke-width:2.38277"
     id="rect2911"
     width="6"
     height="10"
     x="38"
     y="30" />
  <rect
     style="fill:#253951;fill-opacity:1;stroke:none;stroke-width:1.04438"
     id="rect1810"
     width="30"
     height="6"
     x="4"
     y="30" />
</svg>
